<svg width="391"  fill="none" xmlns="http://www.w3.org/2000/svg">
<path d="M59.856 15.456H54.288V12.912H68.568V15.456H62.976V30H59.856V15.456ZM75.1209 17.592C75.5849 17.592 75.9849 17.656 76.3209 17.784L76.2969 20.52C75.7849 20.312 75.2569 20.208 74.7129 20.208C73.6889 20.208 72.9049 20.504 72.3609 21.096C71.8329 21.688 71.5689 22.472 71.5689 23.448V30H68.5929V21.312C68.5929 20.032 68.5289 18.888 68.4009 17.88H71.2089L71.4489 20.016C71.7529 19.232 72.2329 18.632 72.8889 18.216C73.5449 17.8 74.2889 17.592 75.1209 17.592ZM89.349 17.88V30H86.397V28.056C86.029 28.728 85.501 29.256 84.813 29.64C84.125 30.008 83.341 30.192 82.461 30.192C81.405 30.192 80.469 29.936 79.653 29.424C78.837 28.912 78.205 28.184 77.757 27.24C77.309 26.296 77.085 25.2 77.085 23.952C77.085 22.704 77.309 21.6 77.757 20.64C78.221 19.664 78.861 18.912 79.677 18.384C80.493 17.84 81.421 17.568 82.461 17.568C83.341 17.568 84.125 17.76 84.813 18.144C85.501 18.512 86.029 19.032 86.397 19.704V17.88H89.349ZM83.277 27.84C84.269 27.84 85.037 27.496 85.581 26.808C86.125 26.12 86.397 25.152 86.397 23.904C86.397 22.624 86.125 21.64 85.581 20.952C85.037 20.264 84.261 19.92 83.253 19.92C82.261 19.92 81.485 20.28 80.925 21C80.381 21.704 80.109 22.688 80.109 23.952C80.109 25.2 80.381 26.16 80.925 26.832C81.485 27.504 82.269 27.84 83.277 27.84ZM98.3524 14.712C97.0564 14.712 96.4084 15.424 96.4084 16.848V17.88H99.1204V20.136H96.4084V30H93.4084V20.136H91.1044V17.88H93.4084V16.704C93.4084 15.264 93.7684 14.16 94.4884 13.392C95.2244 12.608 96.2724 12.216 97.6324 12.216C98.3844 12.216 99.0164 12.312 99.5284 12.504V14.88C99.0804 14.768 98.6884 14.712 98.3524 14.712ZM112.904 17.88V30H109.952V28.056C109.584 28.728 109.056 29.256 108.368 29.64C107.68 30.008 106.896 30.192 106.016 30.192C104.96 30.192 104.024 29.936 103.208 29.424C102.392 28.912 101.76 28.184 101.312 27.24C100.864 26.296 100.64 25.2 100.64 23.952C100.64 22.704 100.864 21.6 101.312 20.64C101.776 19.664 102.416 18.912 103.232 18.384C104.048 17.84 104.976 17.568 106.016 17.568C106.896 17.568 107.68 17.76 108.368 18.144C109.056 18.512 109.584 19.032 109.952 19.704V17.88H112.904ZM106.832 27.84C107.824 27.84 108.592 27.496 109.136 26.808C109.68 26.12 109.952 25.152 109.952 23.904C109.952 22.624 109.68 21.64 109.136 20.952C108.592 20.264 107.816 19.92 106.808 19.92C105.816 19.92 105.04 20.28 104.48 21C103.936 21.704 103.664 22.688 103.664 23.952C103.664 25.2 103.936 26.16 104.48 26.832C105.04 27.504 105.824 27.84 106.832 27.84ZM116.171 12.336H119.147V30H116.171V12.336ZM134.141 17.88V29.616C134.141 31.504 133.621 32.936 132.581 33.912C131.541 34.888 130.013 35.376 127.997 35.376C126.125 35.376 124.477 34.984 123.053 34.2L123.533 31.92C125.005 32.688 126.469 33.072 127.925 33.072C130.085 33.072 131.165 32 131.165 29.856V27.456C130.797 28.112 130.261 28.648 129.557 29.064C128.853 29.464 128.061 29.664 127.181 29.664C126.125 29.664 125.181 29.416 124.349 28.92C123.533 28.408 122.893 27.696 122.429 26.784C121.981 25.856 121.757 24.8 121.757 23.616C121.757 22.432 121.981 21.384 122.429 20.472C122.893 19.544 123.533 18.832 124.349 18.336C125.181 17.824 126.125 17.568 127.181 17.568C128.077 17.568 128.869 17.76 129.557 18.144C130.261 18.512 130.797 19.032 131.165 19.704V17.88H134.141ZM127.973 27.312C128.965 27.312 129.741 26.984 130.301 26.328C130.877 25.672 131.165 24.768 131.165 23.616C131.165 22.464 130.885 21.56 130.325 20.904C129.765 20.248 128.981 19.92 127.973 19.92C126.981 19.92 126.197 20.248 125.621 20.904C125.061 21.56 124.781 22.464 124.781 23.616C124.781 24.768 125.061 25.672 125.621 26.328C126.197 26.984 126.981 27.312 127.973 27.312ZM148.974 17.88V30H146.022V28.056C145.654 28.728 145.126 29.256 144.438 29.64C143.75 30.008 142.966 30.192 142.086 30.192C141.03 30.192 140.094 29.936 139.278 29.424C138.462 28.912 137.83 28.184 137.382 27.24C136.934 26.296 136.71 25.2 136.71 23.952C136.71 22.704 136.934 21.6 137.382 20.64C137.846 19.664 138.486 18.912 139.302 18.384C140.118 17.84 141.046 17.568 142.086 17.568C142.966 17.568 143.75 17.76 144.438 18.144C145.126 18.512 145.654 19.032 146.022 19.704V17.88H148.974ZM142.902 27.84C143.894 27.84 144.662 27.496 145.206 26.808C145.75 26.12 146.022 25.152 146.022 23.904C146.022 22.624 145.75 21.64 145.206 20.952C144.662 20.264 143.886 19.92 142.878 19.92C141.886 19.92 141.11 20.28 140.55 21C140.006 21.704 139.734 22.688 139.734 23.952C139.734 25.2 140.006 26.16 140.55 26.832C141.11 27.504 141.894 27.84 142.902 27.84ZM158.769 17.592C159.233 17.592 159.633 17.656 159.969 17.784L159.945 20.52C159.433 20.312 158.905 20.208 158.361 20.208C157.337 20.208 156.553 20.504 156.009 21.096C155.481 21.688 155.217 22.472 155.217 23.448V30H152.241V21.312C152.241 20.032 152.177 18.888 152.049 17.88H154.857L155.097 20.016C155.401 19.232 155.881 18.632 156.537 18.216C157.193 17.8 157.937 17.592 158.769 17.592Z" fill="white"/>
<circle cx="21.5" cy="20.5" r="20.5" fill="white"/>
<path d="M20.344 15.244H14.312V12.488H29.782V15.244H23.724V31H20.344V15.244Z" fill="#5B9BF3"/>


</svg>
